# xmcd
#
# Track frame offsets: 
#        150
#        12255
#        23505
#        34246
#        47592
#        57788
#        69099
#        82773
#        95618
#        108207
#        117334
#        129954
#        141311
#        155121
#
# Disc length: 2230 seconds
#
# Revision: 0
# Processed by: cddbd v1.5.2PL0 Copyright (c) Steve Scherf et al.
# Submitted via: ExactAudioCopy v1.0b4
#
DISCID=a908b40e
DTITLE=Jimmy Rogers - Blues Roots Vol. 17 (LP)
DYEAR=1982
DGENRE=Blues
TTITLE0=Chicago Bound
TTITLE1=Can't Keep From Worryin'
TTITLE2=What Have I Done
TTITLE3=The World Is In A Tangle
TTITLE4=Don't Turn Me Down
TTITLE5=Trace Of You
TTITLE6=Sloppy Drunk
TTITLE7=Rock This House
TTITLE8=Cryin' Shame
TTITLE9=My Baby Don't Love Me No More
TTITLE10=That's Alright
TTITLE11=Don't Know My Baby (Is Coming Home)
TTITLE12=Blues Leave Me Alone
TTITLE13=Goin' Away Baby
EXTD=
EXTT0=
EXTT1=
EXTT2=
EXTT3=
EXTT4=
EXTT5=
EXTT6=
EXTT7=
EXTT8=
EXTT9=
EXTT10=
EXTT11=
EXTT12=
EXTT13=
PLAYORDER=
